<svg width="24" height="17" viewBox="0 0 24 17" fill="none" xmlns="http://www.w3.org/2000/svg">
<path d="M23.8528 7.66535C21.6152 3.18445 17.1852 0.152725 12.1128 0.152725C7.04034 0.152725 2.60914 3.18657 0.372698 7.66577C0.278306 7.8574 0.229126 8.06912 0.229126 8.28385C0.229126 8.49857 0.278306 8.71029 0.372698 8.90192C2.61037 13.3828 7.04034 16.4145 12.1128 16.4145C17.1852 16.4145 21.6164 13.3807 23.8528 8.9015C23.9472 8.70987 23.9964 8.49815 23.9964 8.28342C23.9964 8.0687 23.9472 7.85698 23.8528 7.66535ZM12.1128 14.3818C10.9376 14.3818 9.78879 14.0242 8.81166 13.3541C7.83453 12.684 7.07295 11.7316 6.62323 10.6173C6.1735 9.50301 6.05584 8.27687 6.2851 7.09394C6.51437 5.91101 7.08027 4.82441 7.91125 3.97157C8.74223 3.11872 9.80097 2.53793 10.9536 2.30263C12.1062 2.06733 13.3009 2.18809 14.3866 2.64965C15.4723 3.11121 16.4003 3.89282 17.0532 4.89567C17.7061 5.89851 18.0546 7.07753 18.0546 8.28363C18.055 9.08457 17.9015 9.87773 17.6031 10.6178C17.3046 11.3578 16.8669 12.0302 16.3151 12.5966C15.7633 13.1629 15.1081 13.6121 14.3871 13.9184C13.666 14.2247 12.8932 14.3822 12.1128 14.3818ZM12.1128 4.21818C11.7592 4.22325 11.4079 4.27724 11.0684 4.37868C11.3483 4.769 11.4825 5.24932 11.4469 5.73254C11.4113 6.21576 11.2081 6.66988 10.8743 7.01254C10.5404 7.35521 10.0979 7.56373 9.62707 7.60028C9.15624 7.63684 8.68824 7.49901 8.30793 7.21179C8.09137 8.03064 8.13046 8.89857 8.4197 9.69342C8.70894 10.4883 9.23377 11.17 9.92031 11.6427C10.6069 12.1154 11.4205 12.3552 12.2469 12.3284C13.0732 12.3016 13.8705 12.0096 14.5266 11.4934C15.1827 10.9771 15.6645 10.2628 15.9043 9.45075C16.1441 8.63875 16.1297 7.77002 15.8633 6.96684C15.5968 6.16366 15.0916 5.46646 14.4188 4.97338C13.746 4.48031 12.9395 4.21618 12.1128 4.21818Z" fill="white"/>
</svg>
