<svg width="26" height="19" viewBox="0 0 26 19" fill="none" xmlns="http://www.w3.org/2000/svg">
<path d="M25.057 6.31226C25.2475 6.16078 25.5309 6.30248 25.5309 6.54192V16.5345C25.5309 17.8294 24.4804 18.88 23.1855 18.88H2.85821C1.56332 18.88 0.512756 17.8294 0.512756 16.5345V6.5468C0.512756 6.30248 0.791279 6.16567 0.986734 6.31714C2.08128 7.16737 3.53253 8.24726 8.51662 11.8681C9.54764 12.6206 11.2872 14.2037 13.0218 14.194C14.7663 14.2086 16.54 12.5912 17.532 11.8681C22.5161 8.24726 23.9624 7.16248 25.057 6.31226ZM13.0218 12.6254C14.1555 12.645 15.7875 11.1986 16.6084 10.6025C23.0926 5.89692 23.5862 5.48646 25.0814 4.31373C25.3648 4.09385 25.5309 3.7518 25.5309 3.39021V2.4618C25.5309 1.16692 24.4804 0.116348 23.1855 0.116348H2.85821C1.56332 0.116348 0.512756 1.16692 0.512756 2.4618V3.39021C0.512756 3.7518 0.678893 4.08896 0.962302 4.31373C2.45753 5.48158 2.95105 5.89692 9.43526 10.6025C10.2562 11.1986 11.8882 12.645 13.0218 12.6254Z" fill="white"/>
</svg>
