<svg width="36" height="28" viewBox="0 0 36 28" fill="none" xmlns="http://www.w3.org/2000/svg">
<path d="M17.5227 7.26394L6.00047 16.7556V26.9999C6.00047 27.2651 6.10582 27.5195 6.29335 27.7071C6.48087 27.8946 6.7352 28 7.0004 28L14.0036 27.9819C14.2679 27.9806 14.521 27.8746 14.7074 27.6872C14.8939 27.4998 14.9985 27.2461 14.9985 26.9818V20.9992C14.9985 20.734 15.1039 20.4796 15.2914 20.292C15.4789 20.1045 15.7333 19.9991 15.9985 19.9991H19.9981C20.2633 19.9991 20.5177 20.1045 20.7052 20.292C20.8927 20.4796 20.9981 20.734 20.9981 20.9992V26.9774C20.9977 27.109 21.0232 27.2394 21.0733 27.3611C21.1234 27.4828 21.1969 27.5934 21.2898 27.6866C21.3827 27.7798 21.4931 27.8537 21.6146 27.9042C21.7361 27.9547 21.8664 27.9806 21.998 27.9806L28.9987 28C29.2639 28 29.5182 27.8946 29.7058 27.7071C29.8933 27.5195 29.9986 27.2651 29.9986 26.9999V16.7487L18.4789 7.26394C18.3435 7.15475 18.1747 7.09521 18.0008 7.09521C17.8269 7.09521 17.6581 7.15475 17.5227 7.26394ZM35.7232 13.7153L30.4986 9.40792V0.750084C30.4986 0.551149 30.4196 0.360363 30.2789 0.219695C30.1383 0.0790266 29.9475 0 29.7486 0H26.2489C26.05 0 25.8593 0.0790266 25.7186 0.219695C25.578 0.360363 25.499 0.551149 25.499 0.750084V5.28871L19.9038 0.684451C19.3668 0.242514 18.6931 0.000883439 17.9977 0.000883439C17.3023 0.000883439 16.6285 0.242514 16.0916 0.684451L0.272166 13.7153C0.196226 13.7781 0.133398 13.8552 0.087272 13.9423C0.0411455 14.0293 0.0126245 14.1246 0.00333859 14.2227C-0.00594732 14.3208 0.00418384 14.4198 0.0331532 14.514C0.0621226 14.6082 0.109362 14.6957 0.172173 14.7716L1.7658 16.7094C1.82844 16.7855 1.90549 16.8486 1.99253 16.895C2.07958 16.9413 2.17491 16.9701 2.27307 16.9795C2.37123 16.989 2.47029 16.979 2.56459 16.9501C2.65888 16.9213 2.74656 16.8741 2.82259 16.8113L17.5227 4.70115C17.6581 4.59197 17.8269 4.53242 18.0008 4.53242C18.1747 4.53242 18.3435 4.59197 18.4789 4.70115L33.1796 16.8113C33.2555 16.8741 33.3431 16.9213 33.4372 16.9503C33.5314 16.9793 33.6304 16.9894 33.7284 16.9801C33.8265 16.9708 33.9218 16.9423 34.0089 16.8962C34.0959 16.85 34.173 16.7872 34.2358 16.7112L35.8294 14.7735C35.8922 14.6972 35.9392 14.6092 35.9678 14.5146C35.9965 14.42 36.0061 14.3207 35.9963 14.2223C35.9864 14.124 35.9572 14.0286 35.9103 13.9415C35.8634 13.8545 35.7999 13.7776 35.7232 13.7153Z" fill="white"/>
</svg>
