<svg width="26" height="26" viewBox="0 0 26 26" fill="none" xmlns="http://www.w3.org/2000/svg">
<g clip-path="url(#clip0_65_18)">
<path d="M25.5309 8.74914C25.5309 13.4988 21.6806 17.3491 16.9309 17.3491C16.3827 17.3491 15.8467 17.2972 15.3269 17.1991L14.1536 18.5191C14.0436 18.6429 13.9086 18.742 13.7575 18.8098C13.6064 18.8777 13.4427 18.9127 13.2771 18.9127H11.4582V20.8673C11.4582 21.515 10.9332 22.04 10.2855 22.04H8.33094V23.9945C8.33094 24.6422 7.8059 25.1673 7.15821 25.1673H1.68548C1.0378 25.1673 0.512756 24.6422 0.512756 23.9945V20.1803C0.512756 19.8693 0.636332 19.571 0.856219 19.351L8.76245 11.4448C8.48281 10.5968 8.33094 9.69074 8.33094 8.74909C8.33094 3.99945 12.1812 0.149142 16.9309 0.149094C21.6946 0.149045 25.5309 3.98543 25.5309 8.74914ZM16.9309 6.40364C16.9309 7.69901 17.981 8.74909 19.2764 8.74909C20.5718 8.74909 21.6218 7.69901 21.6218 6.40364C21.6218 5.10826 20.5718 4.05818 19.2764 4.05818C17.981 4.05818 16.9309 5.10826 16.9309 6.40364Z" fill="white"/>
</g>
<defs>
<clipPath id="clip0_65_18">
<rect width="25.0182" height="25.0182" fill="white" transform="translate(0.512756 0.149094)"/>
</clipPath>
</defs>
</svg>
