<svg width="35" height="27" viewBox="0 0 35 27" fill="none" xmlns="http://www.w3.org/2000/svg">
<path d="M34.5156 14.6944L22.8484 26.5049C21.8066 27.5594 20.001 26.8213 20.001 25.3098V18.5609H10.5561C9.63242 18.5609 8.88933 17.8087 8.88933 16.8737V10.1248C8.88933 9.18981 9.63242 8.43759 10.5561 8.43759H20.001V1.68871C20.001 0.184277 21.7997 -0.560911 22.8484 0.493601L34.5156 12.3041C35.1615 12.965 35.1615 14.0335 34.5156 14.6944ZM13.334 26.1534V23.3414C13.334 22.8774 12.959 22.4978 12.5006 22.4978H6.667C5.43777 22.4978 4.44466 21.4925 4.44466 20.2481V6.75037C4.44466 5.50605 5.43777 4.50075 6.667 4.50075H12.5006C12.959 4.50075 13.334 4.12112 13.334 3.65714V0.845105C13.334 0.38112 12.959 0.0014952 12.5006 0.0014952H6.667C2.98626 0.0014952 0 3.02443 0 6.75037V20.2481C0 23.9741 2.98626 26.997 6.667 26.997H12.5006C12.959 26.997 13.334 26.6174 13.334 26.1534Z" fill="white"/>
</svg>
