<svg width="26" height="27" viewBox="0 0 26 27" fill="none" xmlns="http://www.w3.org/2000/svg">
<path d="M7.45895 10.7812V15.4688C7.45895 16.2454 6.92225 16.875 6.26018 16.875H1.19876C0.536696 16.875 0 16.2454 0 15.4688V10.7812C0 10.0046 0.536696 9.375 1.19876 9.375H6.26018C6.92225 9.375 7.45895 10.0046 7.45895 10.7812ZM0 20.1562V24.8438C0 25.6204 0.536696 26.25 1.19876 26.25H6.26018C6.92225 26.25 7.45895 25.6204 7.45895 24.8438V20.1562C7.45895 19.3796 6.92225 18.75 6.26018 18.75H1.19876C0.536696 18.75 0 19.3796 0 20.1562ZM6.26018 0H1.19876C0.536696 0 0 0.62959 0 1.40625V6.09375C0 6.87041 0.536696 7.5 1.19876 7.5H6.26018C6.92225 7.5 7.45895 6.87041 7.45895 6.09375V1.40625C7.45895 0.62959 6.92225 0 6.26018 0ZM10.2561 26.25H24.3748C25.0369 26.25 25.5736 25.6204 25.5736 24.8438V20.1562C25.5736 19.3796 25.0369 18.75 24.3748 18.75H10.2561C9.59399 18.75 9.0573 19.3796 9.0573 20.1562V24.8438C9.0573 25.6204 9.59399 26.25 10.2561 26.25ZM9.0573 1.40625V6.09375C9.0573 6.87041 9.59399 7.5 10.2561 7.5H24.3748C25.0369 7.5 25.5736 6.87041 25.5736 6.09375V1.40625C25.5736 0.62959 25.0369 0 24.3748 0H10.2561C9.59399 0 9.0573 0.62959 9.0573 1.40625ZM10.2561 16.875H24.3748C25.0369 16.875 25.5736 16.2454 25.5736 15.4688V10.7812C25.5736 10.0046 25.0369 9.375 24.3748 9.375H10.2561C9.59399 9.375 9.0573 10.0046 9.0573 10.7812V15.4688C9.0573 16.2454 9.59399 16.875 10.2561 16.875Z" fill="white"/>
</svg>
