<svg width="26" height="30" viewBox="0 0 26 30" fill="none" xmlns="http://www.w3.org/2000/svg">
<path d="M13.2 30C15.1867 30 16.7983 28.3213 16.7983 26.25H9.60168C9.60168 28.3213 11.2132 30 13.2 30ZM25.3156 21.2279C24.2289 20.0115 22.1955 18.1816 22.1955 12.1875C22.1955 7.63477 19.131 3.99023 14.9988 3.09609V1.875C14.9988 0.839648 14.1933 0 13.2 0C12.2066 0 11.4011 0.839648 11.4011 1.875V3.09609C7.26899 3.99023 4.2045 7.63477 4.2045 12.1875C4.2045 18.1816 2.17107 20.0115 1.08433 21.2279C0.746827 21.6059 0.597202 22.0576 0.600014 22.5C0.606202 23.4609 1.33014 24.375 2.40563 24.375H23.9943C25.0698 24.375 25.7943 23.4609 25.7999 22.5C25.8028 22.0576 25.6531 21.6053 25.3156 21.2279Z" fill="white"/>
</svg>
