<svg width="26" height="26" viewBox="0 0 26 26" fill="none" xmlns="http://www.w3.org/2000/svg">
<path d="M13.0218 14.8982C16.9065 14.8982 20.0582 11.7465 20.0582 7.86182C20.0582 3.97716 16.9065 0.825455 13.0218 0.825455C9.13719 0.825455 5.98548 3.97716 5.98548 7.86182C5.98548 11.7465 9.13719 14.8982 13.0218 14.8982ZM19.2764 16.4618H16.584C15.4992 16.9602 14.2923 17.2436 13.0218 17.2436C11.7514 17.2436 10.5493 16.9602 9.45969 16.4618H6.7673C3.31264 16.4618 0.512756 19.2617 0.512756 22.7164V23.4982C0.512756 24.7931 1.56332 25.8436 2.85821 25.8436H23.1855C24.4804 25.8436 25.5309 24.7931 25.5309 23.4982V22.7164C25.5309 19.2617 22.7311 16.4618 19.2764 16.4618Z" fill="white"/>
</svg>
